<svg xmlns="http://www.w3.org/2000/svg" version="1.0" viewBox="223.45437622070312 583.21533203125 954.1956787109375 186.98455810546875" width="103" height="29" preserveAspectRatio="xMidYMid meet"><path d="M736 583.5c-.8.2-4.9.9-9 1.5-9.9 1.6-24.5 6.9-32.9 11.9-14.4 8.5-24.5 22.6-24.6 34.2 0 4.7.4 6.2 2.4 8.3 2.9 3 7.1 3.4 9.3.8.8-.9 3-4.6 4.9-8.2 4.1-7.8 14.4-18.5 21.9-22.8 3-1.8 6-3.2 6.7-3.2.8 0 .4 2.3-1.3 7.2-2.8 8.2-5.5 22.1-7.9 39.3-2.6 19.1-6.2 41.6-11 68.1-6.1 33.7-6 39 1.4 42.8 4.1 2.2 17.5 4.4 33.2 5.7 24.9 1.9 42.9-1.7 57.7-11.5 9.1-6 14.6-12.2 19.1-21.6 3.5-7.3 3.6-7.8 3.6-19.5 0-11.6-.1-12.3-3.3-18.7-4-8.3-11.3-15.1-21.6-20.4-4.2-2.2-7.6-4.1-7.6-4.4s2.1-1.8 4.7-3.5c7.1-4.4 17.4-14.6 21-20.7 10.1-16.7 7.6-39.2-5.5-50.9-5.5-4.9-16.3-10.2-25.4-12.5-5.7-1.4-32-2.8-35.8-1.9m29.6 19c21.8 10.7 19.8 42.5-3.6 57.5-6.9 4.4-15.8 7-24.1 7-6.2 0-6.9-.2-6.9-1.9 0-6.9 11.6-59.6 14.1-64.3 1-1.9 1.7-2 8.2-1.5 4.5.4 8.9 1.5 12.3 3.2m-17.1 79.6c12.2 2.2 22.3 9.8 27.2 20.6 3.5 7.5 3.1 20-.9 28.5-3.4 7.3-10.7 14.6-18.3 18.4-5.7 2.8-6.6 2.9-19 2.9-7.1 0-14.3-.4-15.9-.8-2.7-.8-2.8-1-2.3-5 4.2-34.1 9-64.4 10.3-65.4 1.7-1.2 8.8-.9 18.9.8m-473.6-96.7c-19.6 5.6-40 26-47.5 47.4-6.3 18.2-5 34.4 3.5 43.5 5.4 5.9 11.8 7.3 16.4 3.7l2.5-2-3.1-6c-9.7-18.8.1-51.1 19.8-65.8 9.3-6.8 8.9-7.8 8.2 19.5-.7 24.6-2.2 42-5.6 65.3-2.5 16.6-7.7 57.8-8.7 68-.8 9.9.4 11.2 10.3 11.2 13.7 0 16.9-3.5 19.7-21.3 3.6-22.7 9.4-86.9 11.8-129.9 1.1-21.6 1.1-22.7-.8-26.5-3-6.1-6.3-7.9-14.7-8.2-4-.1-9.3.4-11.8 1.1m751.8 1c-6.2 2.3-11.2 6.1-14.5 11.3-7.9 12.4-11.1 30.3-18.8 104.3-3 29.4-2.5 27.8-12.3 38.3-6.8 7.3-13.8 8.8-18.2 4.1-3.9-4.2-3.2-17.3 3-55.2 2.9-17.3 4.9-32.2 4.6-33.2-.9-3-5.9-4.3-13.5-3.7-7.7.6-12.7 2.8-14 6-.5 1.2-1.6 9.8-2.5 19.2-.9 9.3-2.9 24.8-4.6 34.4-3.2 19.5-3.9 21-13.5 30.1-5 4.7-5.7 5.1-9.7 4.8-3.7-.3-4.4-.7-6-3.8-2.9-5.6-1.7-24.2 3.3-53 5.8-32.9 5.7-31.4 2.7-34.3-4.7-4.8-17.9-4.4-21.2.6-1.5 2.4-6.1 28.7-9 51.7-1.6 12.5-2 14-5.8 20.5-10.7 18.4-24.1 24-27.8 11.6-1.5-4.9.7-22.7 6.3-51.1 6.6-33.8 6.4-32.8 4.6-34.6-3.6-3.6-19.9-2.5-25.2 1.7-2 1.6-2.6 3.1-3.1 8.7-1.7 18.8-2.9 27.1-6 42.7-1.9 9.3-3.8 20.6-4.4 25-2.4 18.4 3.2 31.4 15.1 34.5 10.7 2.9 23-2.1 35-14.3 4.3-4.4 7.8-7.3 7.8-6.5 0 4 3.5 12.3 6.6 15.8 9.2 10.2 25.1 7.3 40-7.2 4.1-3.9 7.5-6.9 7.7-6.7s.9 2.2 1.5 4.4c1.9 6.6 7.4 12.2 13.8 14.1 11.5 3.3 23.2-1.1 35.5-13.5l7.8-7.8.7 3.1c1.2 5.8 5.4 12.5 9.2 15.1 12.4 8.2 31.3 3 47.5-13 2.6-2.6 4.9-4.6 5.1-4.4.1.2 1 2.4 1.9 4.9 2.2 6 7.9 11.7 14.6 14.8 4.5 2.1 6.4 2.4 12 2 11.7-.9 20-6.2 29.6-19.1 4.7-6.2 4.9-6.1 5.9 1.1.8 5.5 3.8 11.4 7.1 14 6.2 4.9 19.3 4.9 29.4 0 5.9-2.8 18-15 21-21.1 2.2-4.5 2.2-4.9.7-7.2s-5.6-3.5-5.6-1.6c0 1.5-8.2 10.1-11.1 11.6-3.4 1.8-10.8 1.9-13 .2-3.2-2.4-4.3-6.1-4.2-13.7.1-7.5 8.1-64.7 14.9-106.5 1.9-12.1 3.8-24.7 4.1-28.1.5-5.7.4-6.2-2.2-8.2-4.9-3.9-19.4-2.6-23.3 2-1.7 2.1-2.7 8.3-5.7 34.8-1.4 12.4-2.8 24.4-3.1 26.6l-.5 4.2-5.2-2.1c-3.8-1.5-7.5-2.1-14.2-2.1-8.4-.1-9.5.2-16.5 3.5-4.1 2-9.6 5.5-12.3 7.9-14.2 12.6-24.8 37-26.4 60.8l-.6 9.3-4.8 4.3c-8.3 7.5-16.6 10.2-23.4 7.6-4.2-1.6-6.4-8-7.1-21.1l-.6-11.4 3.5-5c20-28.1 31-48.3 35.3-65 3.5-13.5 4.4-33.5 2-41.8-3.9-13.3-16.8-19.9-29.9-15.3m14.8 15.6c2.7 3 3.2 16.2 1 29.2-2.4 14.5-7.3 29.1-15.2 44.8l-6.8 13.5-.3-5.4c-.6-10.1 6.6-61.8 10.3-74 1.7-5.4 5.3-10.1 7.8-10.1.8 0 2.2.9 3.2 2m78.2 68.7c3.7 2 3.8 2.1 3.6 7.4-.1 3-1.2 12.6-2.4 21.4-2.1 15.7-2.2 16.2-7.7 27-3.9 7.7-7.3 12.7-11.2 16.7-5.2 5.4-5.9 5.8-10.2 5.8-6.3 0-9.3-2.6-11.4-9.8-3.5-11.8.4-36.9 8-52 8.5-17 19.4-22.7 31.3-16.5"/><path d="M530 598.8c-5.1 2.5-5.9 5.9-5.9 25.1l-.1 16.4-10-.7-10.1-.6-1.5 3.6c-1.6 3.9-1.2 6.9 1.2 7.8.9.3 5.4.9 10 1.2 5.1.4 8.4 1.1 8.4 1.8 0 1.6-6.6 46-9 60.6-1.1 6.9-2 13.8-2 15.3 0 2-1.4 4.2-4.5 7.5l-4.4 4.7.6-8.1c1-13.8-3.6-23.6-20-42.9-10.4-12.2-11.8-18.1-6.5-27.7 2-3.5 2-3.8.4-6.3-3.9-6-15.9-7.2-23.1-2.4-4.1 2.8-8.5 10.8-8.5 15.6 0 1.8.7 5.1 1.6 7.2 1.5 3.9 1.5 4.3-1.1 12.3-1.5 4.6-4.3 11.4-6.2 15.3-4 8.1-21.1 33.1-26.4 38.7-4.2 4.4-8.2 5.1-10 1.6-1.8-3.4-.5-20.6 3.6-44.2 3.9-23.1 4.4-33 1.9-37.9-2.6-5.1-6.5-8.6-10.7-9.8-14-3.7-30.3 9-45.3 35.5-4.7 8.3-7.3 11-6 6.4 1.5-6 5.8-37.7 5.3-39.2-1.1-2.7-5.7-3.8-12.6-3.2-7.8.8-12.5 2.7-14.4 5.8-.9 1.5-2 9.4-3.1 22.8-1.5 17.9-2.9 30.4-7.8 68.2-1.8 14.1 1.2 17.8 14.4 17.8 8.5 0 10.4-1.4 10.6-7.7.3-7.7 4-26.8 6.6-33.5 3.3-8.9 16.2-34.3 20.7-41 4.7-6.9 8.3-9.8 12-9.8 5.9 0 6 2.2.8 37.8-4.5 31.7-3.8 45.7 2.7 51.3 7.3 6.3 20.5 4.3 32-4.9 7.1-5.6 22-28.5 36.8-56.3l5.4-10.1 6.5 9.4c14 20.2 17.7 27.4 17.7 34.6 0 8.6-6.6 15.2-15.3 15.2-4.4 0-5.4-.4-8.7-3.8-2.3-2.3-4.2-5.5-5-8.2-2.4-8.8-2.7-9.3-6.2-8.6-14 2.8-15.8 20.7-3 30.3 6.4 4.8 13.8 6.7 24.1 6 14-.9 27.8-7.1 39.4-17.7 3-2.7 5.8-5 6.1-5s.6 1 .6 2.2c.1 3.5 3.8 10.9 7.3 14.6 10.9 11.2 33.5 5.4 46.4-11.9l3.6-4.7 2.7 5.7c5.3 11.2 16.9 18 28.5 16.8 10.1-1 17.9-6.7 25.2-18.5l4.7-7.5 1.3 6.7c2.1 11.8 6.8 17.7 15.2 19.2 4.5.9 12.8-.8 18.9-3.8 9.5-4.7 23.1-21 22-26.5-.2-.9-1.6-2.4-3.1-3.3-2.8-1.4-3-1.4-4.5 1-3 4.5-8.5 10.1-11.3 11.6-4 2-7.4 1.7-10.6-1l-2.8-2.4.1-12.9c.1-10.1 1.1-19.2 4.8-42.8 2.6-16.5 5-30.3 5.2-30.7 1.2-1.8-3.1-3.8-8.2-3.8-6.3 0-11.5 1.9-13.6 4.9l-1.5 2.2-5.2-3.5c-6-4.1-10.1-5.1-17.9-4.3-8 .7-15.7 3.9-22.9 9.4-15.8 12.1-25.3 32.3-28.4 60.3-1.2 9.9-1.4 10.5-5.4 15.4-7.9 9.7-15.3 12.2-21.2 7.2-2.6-2.2-2.8-3.1-3.2-11-.1-4.7.2-12.5.9-17.3 1.2-9.8 8.7-57.2 9.6-61.6.5-2.6.8-2.7 7.2-2.7 13.7-.1 19.7-3 19-8.9-.3-2.2-.8-2.6-3.3-2.4-8.5.6-21.4.7-21.8.3-.3-.3.4-6.6 1.4-14 2.3-16.7 2.3-20.3.3-24.1-2.9-5.6-14.1-7.8-21.4-4.1m103.6 73.3 2.6 2.4-.5 12.5c-.7 14.1-2.8 23.3-8.1 36.1-7.1 16.7-15 25.9-22.3 25.9-4.8 0-7-1.4-9.4-6.2-5.5-10.8-2.1-39.5 6.8-57.1 3-6 9.8-13.5 13.8-15.4 4.7-2.1 13.9-1.2 17.1 1.8m319.8-58.2c-4.6 2.8-6.4 5.9-6.4 11.1 0 6.3 2.7 10.4 8.4 12.5 5.6 2.2 10.6 1.5 15.1-1.9 10.5-8.1 4.2-23.6-9.7-23.6-2.5 0-5.6.8-7.4 1.9"/></svg>